<svg xmlns="http://www.w3.org/2000/svg" xmlns:xlink="http://www.w3.org/1999/xlink" id="Layer_1" x="0px" y="0px" viewBox="0 0 300 110.2" style="enable-background:new 0 0 300 110.2;" xml:space="preserve" width="300" height="110.2"> <style type="text/css"> .st0{fill:#000000;} </style> <g> <g> <path d="M23.4,73.7H31l-19.2,34.7H4.9L0.5,73.7h7.8l1.9,26.4L23.4,73.7z" fill="#000000"></path> <path d="M34.6,108.4h-7.2l7.4-34.7h7.2L34.6,108.4z" fill="#000000"></path> <path d="M73.9,73.7l-1.3,6.2H62.2l-6.1,28.6h-7.3l6.1-28.6H44.5l1.3-6.2H73.9z" fill="#000000"></path> <path d="M87.6,73.7h8.2l4.9,34.7h-7.9l-0.7-7.1H79.4l-3.9,7.1h-7.6L87.6,73.7z M82.6,95.3h8.8L90,81.6L82.6,95.3z" fill="#000000"></path> <path d="M137.8,77.4c0.8,1.5,0.9,3.2,0.5,5.3c-0.5,2.1-1.4,3.8-2.7,5.1c-0.7,0.7-1.8,1.4-3,2c1.6,0.6,2.8,1.7,3.4,3.1 c0.6,1.4,0.7,3.1,0.3,5.1c-0.4,2.1-1.4,3.9-2.7,5.5c-0.9,1.1-1.9,2-3.1,2.7c-1.3,0.8-2.7,1.4-4.3,1.7c-1.6,0.3-3.3,0.5-5,0.5 h-15.7l7.4-34.7h16.9C133.8,73.7,136.5,75,137.8,77.4z M115.5,93.1l-2,9.3h8.5c1.5,0,2.7-0.2,3.7-0.6c1.7-0.8,2.8-2.2,3.3-4.3 c0.4-1.8-0.1-3-1.5-3.7c-0.8-0.4-1.9-0.6-3.4-0.6H115.5z M118.3,79.7l-1.6,7.7h8.5c1.5,0,2.8-0.3,3.9-0.9c1.1-0.6,1.8-1.6,2.1-3.1 c0.3-1.6-0.1-2.7-1.2-3.2c-1-0.4-2.4-0.5-4.1-0.5H118.3z" fill="#000000"></path> <path d="M146.6,108.4h-7.2l7.4-34.7h7.2L146.6,108.4z" fill="#000000"></path> <path d="M180.2,105.3c-3.2,2.7-7.3,4.1-12.2,4.1c-5,0-8.5-1.4-10.5-4.1c-2.8-3.3-3.6-8.1-2.2-14.3c1.4-6.4,4.1-11.1,8.3-14.3 c3.2-2.7,7.3-4.1,12.2-4.1c5,0,8.5,1.4,10.5,4.1c2.8,3.2,3.6,8,2.2,14.3C187.2,97.3,184.4,102,180.2,105.3z M181.3,91 c0.8-3.9,0.6-6.9-0.6-9c-1.2-2.1-3.3-3.2-6.2-3.2c-2.9,0-5.4,1.1-7.6,3.2c-2.2,2.1-3.7,5.1-4.5,9.1c-0.8,3.9-0.6,6.9,0.6,9.1 c1.3,2.1,3.3,3.2,6.2,3.2s5.4-1.1,7.5-3.2C178.9,97.9,180.4,94.9,181.3,91z" fill="#000000"></path> <path d="M223.4,73.7l-1.3,6.2h-10.4l-6.1,28.6h-7.3l6.1-28.6h-10.4l1.3-6.2H223.4z" fill="#000000"></path> <path d="M226.5,108.4h-7.2l7.4-34.7h7.2L226.5,108.4z" fill="#000000"></path> <path d="M243.2,77.3c3.4-2.9,7.3-4.3,11.7-4.3c5.8,0,9.7,1.9,11.6,5.8c1,2.2,1.4,4.3,1,6.5h-7.3c-0.1-1.7-0.4-2.9-1-3.8 c-1-1.5-2.8-2.3-5.4-2.3c-2.6,0-5,1.1-6.9,3.2c-2,2.1-3.4,5.1-4.2,9c-0.8,3.9-0.7,6.8,0.5,8.8c1.2,1.9,3,2.9,5.5,2.9 c2.5,0,4.7-0.8,6.4-2.5c0.9-0.9,1.8-2.2,2.7-4h7.2c-1.4,3.8-3.7,6.9-6.8,9.2c-3.1,2.4-6.7,3.6-10.7,3.6c-5,0-8.6-1.6-10.8-4.8 c-2.2-3.2-2.7-7.6-1.5-13.2C236.7,85.3,239.3,80.6,243.2,77.3z" fill="#000000"></path> <path d="M275.9,97.7c-0.1,1.6,0.1,2.8,0.5,3.6c0.9,1.4,2.7,2.1,5.6,2.1c1.7,0,3.1-0.2,4.3-0.6c2.2-0.7,3.5-2.1,3.9-4 c0.3-1.1-0.1-2-0.9-2.7c-0.9-0.6-2.3-1.2-4.4-1.6l-3.5-0.8c-3.4-0.8-5.8-1.7-6.9-2.7c-2-1.6-2.6-4.1-1.9-7.5 c0.7-3.1,2.3-5.7,5-7.8c2.7-2.1,6.2-3.1,10.6-3.1c3.7,0,6.6,1,8.7,2.9c2.2,1.9,2.9,4.8,2.3,8.5h-7c0.3-2.1-0.3-3.6-1.8-4.5 c-1-0.6-2.3-0.9-4-0.9c-1.9,0-3.4,0.4-4.7,1.1c-1.3,0.8-2.1,1.8-2.3,3.2c-0.3,1.2,0.1,2.2,1.1,2.8c0.6,0.4,2,0.9,4.2,1.4l5.7,1.4 c2.5,0.6,4.3,1.5,5.4,2.5c1.7,1.6,2.3,4,1.6,7.1c-0.7,3.2-2.5,5.8-5.3,7.9c-2.9,2.1-6.5,3.1-11,3.1c-4.5,0-7.9-1-10-3.1 c-2.2-2.1-2.8-4.9-2.1-8.5H275.9z" fill="#000000"></path> </g> <path class="st0" d="M184.9,52.2l-11,2.6c4.7-6.2,9.4-15,9.4-24.3c0-15.5-15.6-29.5-34-29.6c0,0-0.3,0-0.3,0v0 c-18.4,0.1-34,14.1-34,29.6c0,9.4,4.7,18.1,9.4,24.3l-11-2.6c-0.2-0.1-0.4,0.2-0.3,0.4l4.7,11c0.1,0.3,0.5,0.5,0.8,0.5h20.6v-1.1 c-5.9-6.2-13.4-15.9-13.4-31.1c0-15.5,13.8-23.6,23.3-23.6c0,0,0,0,0,0c9.5,0,23.3,8.1,23.3,23.6c0,15.2-7.4,24.9-13.4,31.1v1.1 h20.6c0.3,0,0.7-0.2,0.8-0.5l4.7-11C185.4,52.4,185.2,52.2,184.9,52.2z" fill="#000000"></path> </g> </svg>