<svg xmlns="http://www.w3.org/2000/svg" xmlns:xlink="http://www.w3.org/1999/xlink" width="665" viewBox="0 0 498.75 63.749997" height="85" preserveAspectRatio="xMidYMid meet"><defs><g></g></defs><g fill="#000000" fill-opacity="1"><g transform="translate(2.304373, 61.394491)"><g><path d="M 19.828125 0 L 7.46875 0 L 7.46875 -59.296875 L 41.453125 -59.296875 L 41.453125 -49 L 19.828125 -49 L 19.828125 -33.703125 L 39.953125 -33.703125 L 39.953125 -23.4375 L 19.828125 -23.4375 Z M 19.828125 0 "></path></g></g></g><g fill="#000000" fill-opacity="1"><g transform="translate(55.943118, 61.394491)"><g><path d="M 43.765625 0 L 39.46875 -14.109375 L 17.84375 -14.109375 L 13.546875 0 L 0 0 L 20.921875 -59.53125 L 36.296875 -59.53125 L 57.3125 0 Z M 36.46875 -24.65625 L 32.15625 -38.453125 C 31.882812 -39.367188 31.523438 -40.550781 31.078125 -42 C 30.640625 -43.445312 30.195312 -44.921875 29.75 -46.421875 C 29.300781 -47.921875 28.941406 -49.222656 28.671875 -50.328125 C 28.398438 -49.222656 28.023438 -47.851562 27.546875 -46.21875 C 27.078125 -44.582031 26.625 -43.03125 26.1875 -41.5625 C 25.757812 -40.101562 25.453125 -39.066406 25.265625 -38.453125 L 21.015625 -24.65625 Z M 36.46875 -24.65625 "></path></g></g></g><g fill="#000000" fill-opacity="1"><g transform="translate(121.301779, 61.394491)"><g><path d="M 42.46875 -16.46875 C 42.46875 -12.945312 41.613281 -9.890625 39.90625 -7.296875 C 38.207031 -4.703125 35.726562 -2.703125 32.46875 -1.296875 C 29.207031 0.109375 25.253906 0.8125 20.609375 0.8125 C 18.546875 0.8125 16.535156 0.675781 14.578125 0.40625 C 12.617188 0.132812 10.738281 -0.257812 8.9375 -0.78125 C 7.144531 -1.3125 5.4375 -1.972656 3.8125 -2.765625 L 3.8125 -14.4375 C 6.625 -13.195312 9.539062 -12.078125 12.5625 -11.078125 C 15.59375 -10.078125 18.597656 -9.578125 21.578125 -9.578125 C 23.628906 -9.578125 25.285156 -9.84375 26.546875 -10.375 C 27.804688 -10.914062 28.71875 -11.660156 29.28125 -12.609375 C 29.851562 -13.554688 30.140625 -14.640625 30.140625 -15.859375 C 30.140625 -17.347656 29.640625 -18.617188 28.640625 -19.671875 C 27.640625 -20.722656 26.265625 -21.707031 24.515625 -22.625 C 22.773438 -23.550781 20.804688 -24.539062 18.609375 -25.59375 C 17.234375 -26.238281 15.734375 -27.023438 14.109375 -27.953125 C 12.492188 -28.890625 10.953125 -30.035156 9.484375 -31.390625 C 8.023438 -32.742188 6.828125 -34.382812 5.890625 -36.3125 C 4.960938 -38.25 4.5 -40.570312 4.5 -43.28125 C 4.5 -46.820312 5.3125 -49.847656 6.9375 -52.359375 C 8.5625 -54.867188 10.878906 -56.789062 13.890625 -58.125 C 16.898438 -59.46875 20.460938 -60.140625 24.578125 -60.140625 C 27.660156 -60.140625 30.597656 -59.78125 33.390625 -59.0625 C 36.191406 -58.351562 39.125 -57.320312 42.1875 -55.96875 L 38.125 -46.203125 C 35.394531 -47.304688 32.945312 -48.160156 30.78125 -48.765625 C 28.613281 -49.378906 26.410156 -49.6875 24.171875 -49.6875 C 22.597656 -49.6875 21.257812 -49.4375 20.15625 -48.9375 C 19.050781 -48.4375 18.210938 -47.734375 17.640625 -46.828125 C 17.078125 -45.921875 16.796875 -44.875 16.796875 -43.6875 C 16.796875 -42.28125 17.207031 -41.09375 18.03125 -40.125 C 18.851562 -39.164062 20.09375 -38.238281 21.75 -37.34375 C 23.414062 -36.457031 25.492188 -35.421875 27.984375 -34.234375 C 31.015625 -32.796875 33.601562 -31.300781 35.75 -29.75 C 37.894531 -28.195312 39.550781 -26.367188 40.71875 -24.265625 C 41.882812 -22.171875 42.46875 -19.570312 42.46875 -16.46875 Z M 42.46875 -16.46875 "></path></g></g></g><g fill="#000000" fill-opacity="1"><g transform="translate(175.102737, 61.394491)"><g><path d="M 30.34375 0 L 17.765625 0 L 17.765625 -48.828125 L 1.65625 -48.828125 L 1.65625 -59.296875 L 46.4375 -59.296875 L 46.4375 -48.828125 L 30.34375 -48.828125 Z M 30.34375 0 "></path></g></g></g><g fill="#000000" fill-opacity="1"><g transform="translate(231.255777, 61.394491)"><g></g></g></g><g fill="#000000" fill-opacity="1"><g transform="translate(260.88698, 61.394491)"><g><path d="M 55.15625 0 L 40.875 0 L 25.34375 -24.984375 L 20.03125 -21.171875 L 20.03125 0 L 7.46875 0 L 7.46875 -59.296875 L 20.03125 -59.296875 L 20.03125 -32.15625 C 20.875 -33.320312 21.695312 -34.484375 22.5 -35.640625 C 23.3125 -36.804688 24.140625 -37.972656 24.984375 -39.140625 L 41.046875 -59.296875 L 55 -59.296875 L 34.3125 -33.046875 Z M 55.15625 0 "></path></g></g></g><g fill="#000000" fill-opacity="1"><g transform="translate(324.096308, 61.394491)"><g><path d="M 41.609375 0 L 7.46875 0 L 7.46875 -59.296875 L 41.609375 -59.296875 L 41.609375 -49 L 20.03125 -49 L 20.03125 -35.96875 L 40.109375 -35.96875 L 40.109375 -25.671875 L 20.03125 -25.671875 L 20.03125 -10.390625 L 41.609375 -10.390625 Z M 41.609375 0 "></path></g></g></g><g fill="#000000" fill-opacity="1"><g transform="translate(378.667774, 61.394491)"><g><path d="M 25.921875 -34.875 L 38.28125 -59.296875 L 51.828125 -59.296875 L 32.15625 -23.078125 L 32.15625 0 L 19.671875 0 L 19.671875 -22.671875 L 0 -59.296875 L 13.625 -59.296875 Z M 25.921875 -34.875 "></path></g></g></g><g fill="#000000" fill-opacity="1"><g transform="translate(438.55172, 61.394491)"><g><path d="M 42.46875 -16.46875 C 42.46875 -12.945312 41.613281 -9.890625 39.90625 -7.296875 C 38.207031 -4.703125 35.726562 -2.703125 32.46875 -1.296875 C 29.207031 0.109375 25.253906 0.8125 20.609375 0.8125 C 18.546875 0.8125 16.535156 0.675781 14.578125 0.40625 C 12.617188 0.132812 10.738281 -0.257812 8.9375 -0.78125 C 7.144531 -1.3125 5.4375 -1.972656 3.8125 -2.765625 L 3.8125 -14.4375 C 6.625 -13.195312 9.539062 -12.078125 12.5625 -11.078125 C 15.59375 -10.078125 18.597656 -9.578125 21.578125 -9.578125 C 23.628906 -9.578125 25.285156 -9.84375 26.546875 -10.375 C 27.804688 -10.914062 28.71875 -11.660156 29.28125 -12.609375 C 29.851562 -13.554688 30.140625 -14.640625 30.140625 -15.859375 C 30.140625 -17.347656 29.640625 -18.617188 28.640625 -19.671875 C 27.640625 -20.722656 26.265625 -21.707031 24.515625 -22.625 C 22.773438 -23.550781 20.804688 -24.539062 18.609375 -25.59375 C 17.234375 -26.238281 15.734375 -27.023438 14.109375 -27.953125 C 12.492188 -28.890625 10.953125 -30.035156 9.484375 -31.390625 C 8.023438 -32.742188 6.828125 -34.382812 5.890625 -36.3125 C 4.960938 -38.25 4.5 -40.570312 4.5 -43.28125 C 4.5 -46.820312 5.3125 -49.847656 6.9375 -52.359375 C 8.5625 -54.867188 10.878906 -56.789062 13.890625 -58.125 C 16.898438 -59.46875 20.460938 -60.140625 24.578125 -60.140625 C 27.660156 -60.140625 30.597656 -59.78125 33.390625 -59.0625 C 36.191406 -58.351562 39.125 -57.320312 42.1875 -55.96875 L 38.125 -46.203125 C 35.394531 -47.304688 32.945312 -48.160156 30.78125 -48.765625 C 28.613281 -49.378906 26.410156 -49.6875 24.171875 -49.6875 C 22.597656 -49.6875 21.257812 -49.4375 20.15625 -48.9375 C 19.050781 -48.4375 18.210938 -47.734375 17.640625 -46.828125 C 17.078125 -45.921875 16.796875 -44.875 16.796875 -43.6875 C 16.796875 -42.28125 17.207031 -41.09375 18.03125 -40.125 C 18.851562 -39.164062 20.09375 -38.238281 21.75 -37.34375 C 23.414062 -36.457031 25.492188 -35.421875 27.984375 -34.234375 C 31.015625 -32.796875 33.601562 -31.300781 35.75 -29.75 C 37.894531 -28.195312 39.550781 -26.367188 40.71875 -24.265625 C 41.882812 -22.171875 42.46875 -19.570312 42.46875 -16.46875 Z M 42.46875 -16.46875 "></path></g></g></g></svg>