<svg xmlns="http://www.w3.org/2000/svg" xmlns:xlink="http://www.w3.org/1999/xlink" id="Layer_1" x="0px" y="0px" viewBox="0 0 209 82.5" style="enable-background:new 0 0 209 82.5;" xml:space="preserve" width="209" height="82.5"> <style type="text/css"> .st0{fill:#000000;} </style> <g> <path class="st0" d="M147.94,32.13c-3.55,0.03-6.14,2.66-6.09,6.17c0.05,3.48,2.67,5.99,6.21,5.95c3.47-0.04,6-2.64,5.97-6.12 C154,34.66,151.39,32.09,147.94,32.13z" fill="#000000"></path> <path class="st0" d="M47.81,38.29c-3.55,0.03-6.14,2.66-6.09,6.17c0.05,3.48,2.67,5.99,6.21,5.95c3.47-0.04,6-2.64,5.97-6.12 C53.87,40.83,51.26,38.26,47.81,38.29z" fill="#000000"></path> <path class="st0" d="M110.74,37.98c-3.51,0.53-5.7,3.49-5.16,6.96c0.54,3.44,3.48,5.56,6.99,5.02c3.43-0.52,5.57-3.45,5.05-6.89 C117.09,39.64,114.15,37.47,110.74,37.98z" fill="#000000"></path> <path class="st0" d="M204.85,26.09l-16.33-15.55c-2-1.9-4.69-2.91-7.45-2.79L25.72,21.36c-2.76,0.12-5.35,1.37-7.17,3.44 l-3.32,3.78c2.05-0.72,4.29-1.04,6.64-0.85c2.96,0.24,5.69,1.14,8.14,2.83c1,0.69,1.09,1.12,0.46,2.16 c-1.07,1.74-2.14,3.47-3.21,5.2c-0.72,1.16-1.11,1.26-2.29,0.61c-1.62-0.89-3.35-1.22-5.16-0.8c-2.89,0.66-4.74,3.3-4.49,6.36 c0.36,4.51,4.66,6.88,8.96,4.93c0.4-0.18,0.78-0.42,1.17-0.63c0.83-0.45,1.35-0.36,1.88,0.41c1.25,1.81,2.5,3.63,3.72,5.46 c0.59,0.89,0.51,1.32-0.34,1.96c-2.88,2.18-6.14,3.26-9.74,3.34c-7.73,0.08-13.98-4.59-15.89-11.87c-0.66-2.51-0.67-5-0.18-7.33 l-1.22,1.39C0.08,45.84,0.36,52.03,4.3,55.79l16.33,15.55c2,1.9,4.69,2.91,7.45,2.79l155.35-13.61c2.76-0.12,5.35-1.37,7.17-3.44 l3.28-3.73c-1.18,0.03-2.36,0.05-3.54,0.08c-1.27,0.03-1.65-0.32-1.68-1.59c-0.11-4.54-0.2-9.08-0.31-13.63 c-0.03-1.2-0.12-2.38-0.68-3.48c-0.53-1.03-1.33-1.75-2.45-2.07c-1.5-0.43-2.98-0.36-4.4,0.29c-1.64,0.74-2.35,2.15-2.55,3.85 c-0.06,0.56-0.07,1.12-0.06,1.68c0.09,4.5,0.2,8.99,0.29,13.49c0.03,1.43-0.26,1.73-1.7,1.76c-2.44,0.06-4.88,0.11-7.32,0.16 c-1.2,0.02-1.58-0.33-1.6-1.51c-0.2-9.01-0.4-18.03-0.6-27.04c-0.02-1.14,0.3-1.49,1.42-1.52c1.76-0.05,3.52-0.09,5.28-0.12 c0.99-0.02,1.33,0.21,1.7,1.14c0.33,0.82,0.65,1.64,1.01,2.55c0.21-0.24,0.36-0.4,0.51-0.57c3.23-3.65,10.48-5.91,16.03-2.78 c3.05,1.72,4.63,4.5,5.3,7.83c0.25,1.25,0.36,2.55,0.4,3.83c0.11,3.85,0.19,7.71,0.27,11.56l6.26-7.13 C209.07,36.03,208.79,29.84,204.85,26.09z M63.48,58.63c-0.09,1.23-0.77,1.85-2,1.78c-2.03-0.12-2.98-0.2-5.01-0.34 c-0.8-0.06-1.71-0.53-2.06-1.27c-0.36-0.76-1.28-3.34-1.28-3.34s-0.32,0.61-0.43,0.76c-1.98,2.89-4.78,4.03-8.08,3.56 c-7.08-0.99-13.13-6.85-13.13-15.31c0-4.72,1.34-8.99,4.87-12.26c3.89-3.6,8.81-4.72,13.95-3.37c2.27,0.6,3.79,2.74,4.81,4.85 c0.09,0.2,0.18,0.4,0.28,0.59c0.02,0.04,0.12,0.27,0.12,0.27s1.4-2.79,1.93-3.78c0.58-1.1,1.18-1.19,2.4-1.11 c1.57,0.11,2.06,0.13,3.63,0.25c1.3,0.1,1.94,0.82,1.85,2.1C64.72,40.89,64.1,49.76,63.48,58.63z M90.21,55.28 c-2.17,1.9-4.75,2.76-7.55,3.11c-0.86,0.11-1.96,0.2-2.78,0.19c-3.68,0.14-6.52-0.62-9.65-2.7c-0.81-0.54-1.56-1.2-2.28-1.87 c-0.6-0.55-0.62-1.13-0.07-1.73c1.44-1.6,2.91-3.18,4.39-4.75c0.56-0.6,1.01-0.53,1.81-0.04c1.15,0.71,2.3,1.47,3.55,1.94 c0.98,0.36,2.07,0.46,3.18,0.41c0.22-0.01,0.46-0.06,0.69-0.13c0.53-0.16,0.94-0.45,0.98-1.05c0.04-0.57-0.27-0.97-0.76-1.15 c-0.94-0.36-1.9-0.66-2.86-0.96c-1.81-0.57-3.67-0.99-5.42-1.69c-6.48-2.57-7.05-11.88-1.58-15.71c2.69-1.88,5.7-2.54,8.92-2.47 c3.81,0.08,7.22,1.27,10.19,3.66c1.08,0.87,1.13,1.29,0.26,2.37c-1.13,1.41-2.26,2.81-3.39,4.22c-0.82,1.02-1.4,1.09-2.44,0.3 c-1.45-1.1-3-1.91-4.89-1.86c-0.3,0.01-0.61,0.02-0.91,0.09c-0.55,0.12-1.05,0.33-1.13,0.99c-0.07,0.64,0.21,1.13,0.8,1.34 c1.19,0.43,2.41,0.77,3.6,1.19c1.87,0.68,3.78,1.26,5.57,2.12C94.52,44.03,94.01,51.95,90.21,55.28z M128.43,55.9 c-1.67,0.23-3.35,0.46-5.02,0.68c-1.02,0.13-1.45-0.08-1.94-0.95c-0.28-0.49-0.55-0.99-0.83-1.48c-0.02-0.03-0.08-0.04-0.14-0.07 c-0.45,0.52-0.87,1.06-1.36,1.55c-3.02,2.99-6.8,3.92-10.91,3.42c-6.18-0.75-9.99-4.35-11.88-9.88c-1.42-4.16-1.47-8.38,0.4-12.5 c2.72-6.01,9.78-9.4,16.21-7.78c0.92,0.23,1.78,0.64,2.81,1.01c-0.04-0.32-0.08-0.58-0.11-0.84c-0.57-4.25-0.71-5.3-1.28-9.54 c-0.18-1.32,0.09-1.66,1.46-1.84c2.44-0.33,4.88-0.66,7.33-0.99c1.23-0.16,1.61,0.12,1.77,1.31c1.76,13.12,3.09,23.04,4.85,36.16 C129.96,55.33,129.64,55.73,128.43,55.9z M147.94,54.15c-9.29,0-16.81-7.14-16.81-15.95s7.53-15.95,16.81-15.95 s16.81,7.14,16.81,15.95S157.23,54.15,147.94,54.15z" fill="#000000"></path> </g> </svg>