<?xml version="1.0" encoding="UTF-8"?>
<svg xmlns="http://www.w3.org/2000/svg" xmlns:xlink="http://www.w3.org/1999/xlink" width="169" zoomAndPan="magnify" viewBox="0 0 126.75 36.000001" height="48" preserveAspectRatio="xMidYMid meet" version="1.2">
  <defs>
    <clipPath id="e679e7112b">
      <path d="M 110 12 L 124.625 12 L 124.625 28 L 110 28 Z M 110 12 "></path>
    </clipPath>
    <clipPath id="142e5c770a">
      <path d="M 1.589844 0 L 37 0 L 37 35 L 1.589844 35 Z M 1.589844 0 "></path>
    </clipPath>
  </defs>
  <g id="00efe9132a">
    <path style=" stroke:none;fill-rule:nonzero;fill:#000000;fill-opacity:1;" d="M 61.386719 12.46875 L 64.472656 12.46875 L 64.472656 27.324219 L 61.386719 27.324219 Z M 62.917969 8.214844 C 64.222656 8.214844 64.882812 8.855469 64.882812 9.789062 C 64.882812 10.726562 64.21875 11.34375 62.917969 11.34375 C 61.617188 11.34375 60.976562 10.679688 60.976562 9.789062 C 60.976562 8.855469 61.640625 8.214844 62.917969 8.214844 Z M 62.917969 8.214844 "></path>
    <path style=" stroke:none;fill-rule:nonzero;fill:#000000;fill-opacity:1;" d="M 85.972656 12.46875 L 91.691406 12.46875 L 93.09375 15.144531 L 87.066406 15.144531 L 87.066406 22.160156 C 87.066406 24.03125 87.386719 24.648438 88.691406 24.648438 L 92.390625 24.648438 L 92.390625 27.324219 L 88.164062 27.324219 C 84.875 27.324219 84.027344 25.675781 84.027344 22.707031 L 84.027344 15.144531 L 80.707031 15.144531 C 80.136719 15.144531 79.597656 15.394531 79.226562 15.828125 L 75.898438 19.738281 L 82.570312 27.320312 L 78.523438 27.320312 L 73.929688 21.929688 L 69.292969 27.320312 L 65.429688 27.320312 L 72.101562 19.738281 L 65.933594 12.46875 L 69.980469 12.46875 L 74.113281 17.519531 L 77.078125 13.878906 C 77.804688 12.988281 78.894531 12.46875 80.042969 12.46875 Z M 85.972656 12.46875 "></path>
    <path style=" stroke:none;fill-rule:nonzero;fill:#000000;fill-opacity:1;" d="M 87.070312 8.214844 L 84.03125 8.214844 L 84.03125 16.511719 L 87.070312 16.511719 Z M 87.070312 8.214844 "></path>
    <path style=" stroke:none;fill-rule:nonzero;fill:#000000;fill-opacity:1;" d="M 59.367188 16.273438 L 46.960938 16.273438 L 46.960938 19.425781 L 59.367188 19.425781 Z M 59.367188 16.273438 "></path>
    <path style=" stroke:none;fill-rule:nonzero;fill:#000000;fill-opacity:1;" d="M 45.464844 27.320312 L 48.589844 27.320312 L 48.589844 14.738281 C 48.589844 12.863281 50.109375 11.34375 51.984375 11.34375 L 59.542969 11.34375 L 59.542969 8.21875 L 51.621094 8.21875 C 48.21875 8.21875 45.460938 10.976562 45.460938 14.378906 L 45.460938 27.320312 Z M 45.464844 27.320312 "></path>
    <path style=" stroke:none;fill-rule:nonzero;fill:#000000;fill-opacity:1;" d="M 108.96875 19.875 C 108.96875 15.007812 106.113281 12.242188 101.289062 12.242188 C 95.785156 12.242188 93.15625 15.375 93.15625 19.851562 L 93.15625 19.875 C 93.15625 24.421875 95.785156 27.550781 101.265625 27.550781 C 105.90625 27.550781 108.351562 25.289062 108.785156 22.546875 L 108.808594 22.410156 L 105.378906 22.410156 L 105.335938 22.546875 C 105.0625 23.667969 103.941406 24.855469 101.316406 24.855469 C 98.070312 24.855469 96.605469 23.117188 96.402344 20.605469 L 108.96875 20.605469 Z M 101.152344 14.9375 C 103.65625 14.9375 105.253906 16.058594 105.675781 18.050781 L 96.613281 18.050781 C 97.136719 16.160156 98.566406 14.9375 101.152344 14.9375 Z M 101.152344 14.9375 "></path>
    <g clip-rule="nonzero" clip-path="url(#e679e7112b)">
      <path style=" stroke:none;fill-rule:nonzero;fill:#000000;fill-opacity:1;" d="M 121.398438 18.761719 L 124.226562 17.972656 C 124.148438 16.773438 123.726562 14.785156 121.917969 13.414062 C 119.53125 11.601562 116.761719 12.417969 116.460938 12.511719 C 115.070312 12.945312 114.179688 13.785156 113.757812 14.25 L 113.757812 12.480469 L 110.753906 12.480469 L 110.753906 27.324219 L 113.757812 27.324219 L 113.757812 19.308594 C 113.757812 18.5625 113.914062 17.820312 114.242188 17.152344 C 114.578125 16.476562 115.136719 15.75 116.066406 15.292969 C 116.175781 15.242188 118.457031 14.183594 120.175781 15.632812 C 121.402344 16.667969 121.4375 18.179688 121.398438 18.761719 Z M 121.398438 18.761719 "></path>
    </g>
    <g clip-rule="nonzero" clip-path="url(#142e5c770a)">
      <path style=" stroke:none;fill-rule:nonzero;fill:#000000;fill-opacity:1;" d="M 27.445312 34.8125 L 10.492188 34.8125 C 5.648438 34.8125 1.726562 30.886719 1.726562 26.046875 L 1.726562 9.09375 C 1.726562 4.25 5.648438 0.328125 10.492188 0.328125 L 27.445312 0.328125 C 32.285156 0.328125 36.210938 4.25 36.210938 9.09375 L 36.210938 26.046875 C 36.210938 30.886719 32.285156 34.8125 27.445312 34.8125 Z M 27.445312 34.8125 "></path>
    </g>
    <path style=" stroke:none;fill-rule:nonzero;fill:#f9ffff;fill-opacity:1;" d="M 10.769531 17.542969 L 10.769531 14.347656 L 12.148438 14.347656 L 12.148438 16.109375 L 13.113281 16.109375 L 15.855469 10.949219 C 17.03125 8.734375 19.28125 7.359375 21.730469 7.359375 L 26.261719 7.359375 C 26.519531 7.851562 26.777344 8.34375 27.015625 8.789062 L 21.730469 8.789062 C 19.785156 8.789062 17.996094 9.882812 17.058594 11.640625 L 13.929688 17.539062 L 10.769531 17.539062 Z M 10.769531 17.542969 "></path>
    <path style=" stroke:none;fill-rule:nonzero;fill:#f9ffff;fill-opacity:1;" d="M 12.488281 27.089844 L 13.867188 27.863281 L 13.867188 19.652344 L 11.789062 19.652344 L 12.480469 21.082031 Z M 12.488281 27.089844 "></path>
    <path style=" stroke:none;fill-rule:nonzero;fill:#f9ffff;fill-opacity:1;" d="M 15.878906 28.367188 L 15.878906 19.628906 L 27.167969 19.628906 L 27.167969 21.058594 L 17.257812 21.058594 L 17.257812 28.367188 Z M 15.878906 28.367188 "></path>
    <path style=" stroke:none;fill-rule:nonzero;fill:#f9ffff;fill-opacity:1;" d="M 16.007812 17.539062 L 18.550781 12.746094 C 19.222656 11.480469 20.511719 10.695312 21.90625 10.695312 L 27.167969 10.695312 L 27.167969 12.125 L 21.90625 12.125 C 21.011719 12.125 20.1875 12.628906 19.757812 13.4375 L 18.335938 16.117188 L 27.167969 16.140625 L 27.167969 17.570312 Z M 16.007812 17.539062 "></path>
  </g>
</svg>
